<?xml version="1.0" standalone="no"?>
<!DOCTYPE svg PUBLIC "-//W3C//DTD SVG 1.1//EN" "http://www.w3.org/Graphics/SVG/1.1/DTD/svg11.dtd" >
<svg xmlns="http://www.w3.org/2000/svg">
<metadata></metadata>
<defs>
<font id="caracaslight" horiz-adv-x="1146" >
<font-face units-per-em="2048" ascent="1651" descent="-397" />
<missing-glyph horiz-adv-x="495" />
<glyph unicode="AE" horiz-adv-x="1812" d="M33 0l635 1358h956v-121h-752l89 -498h591v-118h-569l88 -504h631v-117h-741l-80 459h-494l-219 -459h-135zM442 573h418l-115 652h-4z" />
<glyph unicode="ae" horiz-adv-x="1667" d="M111 274q0 145 107.5 211t332.5 66h219q0 183 -65.5 265.5t-204.5 82.5q-161 0 -242 -96l-90 78q116 137 332 137q256 0 342 -189h6q53 90 145.5 140.5t198.5 50.5q161 0 264 -92t103 -213q0 -127 -89 -201t-223 -74h-356q0 -162 71 -250t205 -88q72 0 140.5 42 t107.5 106l103 -57q-51 -93 -146 -148t-205 -55q-112 0 -215 59q-102 61 -129 141h-6q-114 -200 -371 -200q-136 0 -237 76q-98 76 -98 208zM231 274q0 -69 56.5 -119.5t144.5 -50.5q181 0 261.5 80.5t80.5 264.5h-209q-169 0 -251.5 -41.5t-82.5 -133.5zM891 551h356 q90 0 139.5 44.5t49.5 119.5q0 74 -69 129t-175 55q-125 0 -215 -84q-86 -83 -86 -219v-45z" />
<glyph unicode="OE" horiz-adv-x="1970" d="M74 559v240q0 235 166 401q169 166 403 166q127 0 248 -59q123 -60 180 -152h10v203h791v-123h-660v-496h605v-125h-605v-493h660v-121h-791v201h-12q-61 -96 -179 -153.5t-247 -57.5q-237 0 -403 166q-166 169 -166 403zM203 559q0 -182 129 -311t311 -129 q183 0 309 129q129 129 129 311v240q0 183 -129 309q-126 129 -309 129q-182 0 -311 -129q-129 -126 -129 -309v-240z" />
<glyph unicode="oe" horiz-adv-x="1638" d="M72 356v277q0 173 114 278t285 105q238 0 352 -187q56 91 149 141t199 50q149 0 259 -94q112 -90 112 -226q0 -138 -92 -215q-91 -73 -223 -73h-355q0 -112 74 -207q76 -94 205 -94q73 0 138 38.5t102 100.5l114 -62q-51 -91 -146.5 -144.5t-207.5 -53.5q-103 0 -191 49 t-143 135q-56 -85 -148.5 -134.5t-197.5 -49.5q-163 0 -281 106t-118 260zM193 377q0 -106 81 -187q82 -79 197 -79q113 0 195 79q82 82 82 187v258q0 113 -82 186q-83 74 -195 74q-114 0 -197 -74q-81 -72 -81 -186v-258zM872 528h355q83 0 136.5 44t53.5 128 q0 86 -70 142.5t-176 56.5q-137 0 -219 -94q-80 -92 -80 -219v-58z" />
<glyph unicode="&#xfb01;" horiz-adv-x="1036" d="M0 899v113h152v125q0 105 69 171t191 66h61v-104h-61q-66 0 -103 -39t-37 -94v-125h510v-783q5 -53 41 -89t99 -36h61v-104h-61q-121 0 -190.5 67.5t-69.5 170.5v661h-390v-899h-120v899h-152zM645 1275q0 35 25 60q26 25 61 25t60 -25t25 -60t-25 -61q-25 -25 -60 -25 t-61 25q-25 26 -25 61z" />
<glyph unicode="&#xfb02;" horiz-adv-x="942" d="M0 899v113h152v125q0 105 69 171t191 66h61v-104h-61q-66 0 -103 -39t-37 -94v-125h201v-113h-201v-899h-120v899h-152zM582 238v1208h123v-1206q0 -57 36.5 -96.5t102.5 -39.5h59v-104h-59q-123 0 -192.5 67t-69.5 171z" />
<glyph horiz-adv-x="2048" />
<glyph horiz-adv-x="2048" />
<glyph unicode="&#xd;" horiz-adv-x="2048" />
<glyph unicode=" "  horiz-adv-x="495" />
<glyph unicode="&#x09;" horiz-adv-x="495" />
<glyph unicode="&#xa0;" horiz-adv-x="495" />
<glyph unicode="!" horiz-adv-x="425" d="M143 1356h142l-29 -1071h-84zM147 0v147h129v-147h-129z" />
<glyph unicode="&#x22;" horiz-adv-x="614" d="M125 1042v314h123l-19 -314h-104zM367 1042v314h122l-18 -314h-104z" />
<glyph unicode="#" horiz-adv-x="1003" d="M72 428v86h172l55 330h-156v86h170l70 428h111l-72 -428h240l71 428h109l-72 -428h143v-86h-157l-56 -330h142v-86h-156l-70 -428h-108l72 428h-242l-70 -428h-108l69 428h-157zM352 514h242l53 330h-239z" />
<glyph unicode="$" horiz-adv-x="933" d="M90 1008q0 150 91.5 247.5t244.5 110.5v147h90v-149q163 -18 277 -147l-95 -89q-101 107 -231 107q-115 0 -181.5 -58.5t-66.5 -168.5q0 -203 242 -258q90 -21 170 -62q82 -42 145 -125q68 -83 68 -194q0 -163 -89.5 -263t-238.5 -112v-152h-90v152q-106 7 -194.5 55 t-139.5 115l103 82q107 -125 276 -125q112 0 179 67.5t67 176.5q0 94 -69.5 156.5t-186.5 90.5q-371 88 -371 396z" />
<glyph unicode="%" horiz-adv-x="1339" d="M109 903v221q0 101 69 170q72 72 172 72t172 -72t72 -170v-221q0 -100 -72 -172q-69 -69 -172 -69t-172 69t-69 172zM203 903q0 -62 43 -105.5t104 -43.5q62 0 106 44t44 105v221q0 62 -44 106t-106 44q-61 0 -104 -44t-43 -106v-221zM221 -74l860 1493h103l-862 -1493 h-101zM817 229v222q0 100 70 170q71 71 172 71t172 -71q72 -72 72 -170v-222q0 -100 -72 -172q-69 -69 -172 -69t-172 69q-70 70 -70 172zM911 229q0 -62 43.5 -105.5t104.5 -43.5t105 44t44 105v222q0 61 -44 105t-105 44t-104.5 -43.5t-43.5 -105.5v-222z" />
<glyph unicode="&#x26;" horiz-adv-x="1234" d="M104 401q0 82 31 155t82 122q85 85 166 123q-4 6 -17.5 24t-34.5 44t-30 38q-22 32 -38.5 78t-16.5 88q0 130 77 212.5t199 82.5q149 0 221 -96q74 -95 74 -203q0 -128 -106 -221q-72 -62 -125 -88l325 -398q127 186 148 259l121 -46q-103 -231 -185 -317l211 -258h-166 l-135 164q-196 -172 -395 -172q-186 0 -295 112q-111 114 -111 297zM233 401q0 -146 86 -217q85 -67 199 -67q164 0 305 147l-356 434l-39 -24l-53 -31q-4 -3 -11 -8.5t-18 -14.5t-20 -16q-44 -35 -65.5 -82.5t-27.5 -120.5zM375 1073q0 -37 24 -78q5 -8 105 -137 q23 12 84 49q38 28 69 72.5t31 89.5q0 74 -44.5 125t-111.5 51q-73 0 -115 -47.5t-42 -124.5z" />
<glyph unicode="'" horiz-adv-x="372" d="M125 1042v314h123l-19 -314h-104z" />
<glyph unicode="(" horiz-adv-x="587" d="M143 586q0 468 211 796l109 -67q-191 -302 -191 -729q0 -425 191 -727l-109 -70q-211 334 -211 797z" />
<glyph unicode=")" horiz-adv-x="587" d="M125 -141q190 301 190 727q0 428 -190 729l108 67q211 -328 211 -796q0 -463 -211 -797z" />
<glyph unicode="*" horiz-adv-x="710" d="M80 969l176 98l-176 102l51 86l174 -100v203h101v-203l174 100l51 -86l-176 -102l176 -98l-51 -88l-174 102v-203h-101v203l-174 -102z" />
<glyph unicode="+" horiz-adv-x="1187" d="M90 510v113h447v450h112v-450h449v-113h-449v-447h-112v447h-447z" />
<glyph unicode="," horiz-adv-x="344" d="M80 -217l47 364h143l-49 -299z" />
<glyph unicode="-" horiz-adv-x="761" d="M160 510v135h442v-135h-442z" />
<glyph unicode="." horiz-adv-x="344" d="M90 0v188h166v-188h-166z" />
<glyph unicode="/" horiz-adv-x="641" d="M35 0l461 1358h110l-461 -1358h-110z" />
<glyph unicode="0" horiz-adv-x="1017" d="M106 391v576q0 167 117 284q120 117 287 117q166 0 283 -117q118 -115 118 -284v-576q0 -167 -118 -282q-117 -117 -283 -117q-167 0 -287 117q-117 117 -117 282zM238 391q0 -111 79 -190q80 -80 193 -80t190 80q80 80 80 190v576q0 110 -80 190q-77 80 -190 80 t-193 -80q-79 -79 -79 -190v-576z" />
<glyph unicode="1" horiz-adv-x="819" d="M143 1157l273 201h119v-1358h-132v1192l-6 2l-186 -135z" />
<glyph unicode="2" horiz-adv-x="974" d="M90 4v121q0 181 131 309q73 69 117 103q52 37 141 96q145 94 211 166t66 153v43q0 108 -78 174q-77 68 -166 68q-105 0 -199 -70t-94 -172v-24h-129v2v2v20q0 156 121 265q121 106 301 106q148 0 260 -106q115 -106 115 -265v-43q0 -96 -64 -186t-217 -197l-100 -67 q-108 -74 -113 -78q-28 -22 -84 -78q-90 -90 -90 -221h658v-121h-787z" />
<glyph unicode="3" horiz-adv-x="1009" d="M53 369h125q0 -103 94 -179q94 -73 207 -73q115 0 195 71q82 73 82 189q0 118 -74.5 189t-196.5 71h-159v123h159q104 0 179 69t75 175q0 104 -74 170.5t-180 66.5q-103 0 -180 -80q-77 -77 -80 -190h-127q0 165 113 278q114 117 274 117q159 0 269 -104 q112 -100 112 -258q0 -96 -48 -180.5t-122 -123.5q86 -44 137.5 -134t51.5 -191q0 -80 -25.5 -146t-66.5 -109.5t-95 -73.5t-109 -43t-110 -13q-161 0 -293 108q-130 112 -133 271z" />
<glyph unicode="4" horiz-adv-x="1040" d="M82 319v113l508 926h139l-508 -926h467v541h133v-541h133v-113h-133v-319h-133v319h-606z" />
<glyph unicode="5" horiz-adv-x="1060" d="M143 379h125q0 -108 84 -186q82 -76 195 -76q108 0 184 76q78 78 78 186v170q0 106 -78 184t-184 78q-78 0 -149.5 -42t-102.5 -105h-135v694h712v-127h-585v-387h6q109 92 254 92q159 0 274 -115t115 -272v-170q0 -162 -115 -277q-112 -112 -274 -112q-163 0 -283 114 q-121 115 -121 275z" />
<glyph unicode="6" horiz-adv-x="1024" d="M106 379v387q0 163 41.5 288t112.5 193q133 127 305 127q165 0 309 -100l-65 -105q-113 82 -244 82q-145 0 -237 -124.5t-92 -340.5l10 -4q112 95 274 95q161 0 279 -115q116 -113 116 -273v-110q0 -163 -118 -275q-117 -114 -277 -114q-170 0 -291 100 q-123 102 -123 289zM231 379q0 -122 86 -193q84 -69 203 -69q110 0 189 76q82 76 82 186v110q0 109 -82 185q-81 78 -189 78q-127 0 -208 -78.5t-81 -214.5v-80z" />
<glyph unicode="7" horiz-adv-x="933" d="M90 1235v123h772v-92l-555 -1266h-137l535 1235h-615z" />
<glyph unicode="8" horiz-adv-x="1030" d="M106 365q0 96 50 178t139 133v8q-176 114 -176 311q0 154 117 262q117 111 280 111q164 0 281 -111q116 -107 116 -262q0 -96 -48 -178.5t-130 -132.5v-8q88 -55 138.5 -135.5t50.5 -175.5q0 -153 -121 -265q-120 -108 -289 -108t-289 108q-119 110 -119 265zM233 371 q0 -107 82 -183q82 -73 201 -73t201 73q84 78 84 183q0 103 -84 178q-82 76 -201 76t-201 -76q-82 -73 -82 -178zM248 989q0 -104 78 -182q80 -74 190 -74q112 0 189 74q79 76 79 182q0 107 -79 180q-76 76 -189 76q-111 0 -190 -76q-78 -75 -78 -180z" />
<glyph unicode="9" horiz-adv-x="987" d="M86 872v111q0 160 117 274q120 117 278 117q168 0 291 -102t123 -289v-387q0 -163 -41.5 -288t-112.5 -193q-131 -125 -305 -125q-165 0 -309 100l66 103q113 -82 243 -82q145 0 237.5 125t92.5 342l-10 2q-112 -95 -275 -95q-159 0 -278 113q-117 114 -117 274zM211 872 q0 -107 80 -184q84 -78 190 -78q127 0 208 78.5t81 214.5v80q0 122 -86 193t-203 71q-106 0 -190 -78q-80 -77 -80 -186v-111z" />
<glyph unicode=":" horiz-adv-x="344" d="M90 0v188h166v-188h-166zM90 500v188h166v-188h-166z" />
<glyph unicode=";" horiz-adv-x="344" d="M80 -217l47 364h143l-49 -299zM96 514v188h166v-188h-166z" />
<glyph unicode="&#x3c;" horiz-adv-x="1021" d="M106 481v78l791 508v-117l-668 -430l668 -430v-119z" />
<glyph unicode="=" horiz-adv-x="1107" d="M90 360v123h928v-123h-928zM90 664v122h928v-122h-928z" />
<glyph unicode="&#x3e;" horiz-adv-x="1021" d="M125 0v119l666 430l-666 430v117l788 -508v-78z" />
<glyph unicode="?" horiz-adv-x="872" d="M78 995v15q0 148 104 252q107 104 254 104q148 0 252 -104q105 -105 105 -252q0 -110 -66 -207l-195 -273q-32 -43 -32 -108v-154h-129v154q0 101 55 174l197 281q47 71 47 133q0 97 -70 164q-66 69 -164 69q-97 0 -166 -69q-67 -67 -67 -164v-15h-125zM371 0v147h129 v-147h-129z" />
<glyph unicode="@" horiz-adv-x="1562" d="M106 385q0 307 216 514q215 209 479 209q276 0 465 -160q190 -156 190 -424q0 -231 -119 -374q-117 -144 -274 -144q-62 0 -103 43.5t-42 110.5h-7q-96 -152 -272 -152q-90 0 -172 76t-82 227q0 215 127 357q129 141 305 141q77 0 142.5 -44.5t78.5 -115.5h6l48 154h100 l-172 -549q-14 -43 -14 -74q0 -42 24.5 -65t61.5 -23q61 0 155 88q49 46 81 138.5t32 205.5q0 188 -123 332q-63 75 -176 118.5t-258 43.5q-250 0 -424 -180q-176 -179 -176 -453q0 -283 174 -432q177 -154 422 -154q134 0 253 47t203 121l64 -59q-233 -195 -520 -195 q-188 0 -340 70q-159 72 -256 229.5t-97 372.5zM487 340q0 -244 164 -244q121 0 221 140q99 138 99 276q0 213 -178 213q-115 0 -209 -117q-97 -117 -97 -268z" />
<glyph unicode="A" d="M35 2l475 1358h129l471 -1358h-135l-131 375h-541l-129 -375h-139zM346 498h455l-223 645h-9z" />
<glyph unicode="B" horiz-adv-x="1234" d="M143 0v1358h600q141 0 234 -96q94 -94 94 -248v-29q0 -176 -125 -270v-10q156 -105 156 -293v-43q0 -154 -103 -263q-100 -106 -268 -106h-588zM272 121h459q98 0 170 72q70 70 70 176v43q0 82 -62 153q-61 70 -159 70h-478v-514zM272 760h453q88 0 152.5 64.5 t64.5 160.5v29q0 96 -64 158.5t-153 62.5h-453v-475z" />
<glyph unicode="C" horiz-adv-x="1241" d="M106 559v240q0 235 166 401q168 168 404 168q154 0 285.5 -77.5t207.5 -209.5l-110 -65q-58 101 -160.5 161t-222.5 60q-180 0 -309 -129t-129 -309v-240q0 -181 127 -311q129 -129 311 -129q121 0 223.5 60t159.5 163l110 -68q-76 -130 -207.5 -206t-285.5 -76 q-235 0 -404 166q-166 166 -166 401z" />
<glyph unicode="D" horiz-adv-x="1308" d="M143 0v1358h490q236 0 401 -168q168 -165 168 -402v-219q0 -235 -168 -403q-166 -166 -401 -166h-490zM272 131h361q183 0 309 129q129 129 129 309v219q0 183 -129 312t-309 129h-361v-1098z" />
<glyph unicode="E" horiz-adv-x="1048" d="M143 0v1358h815v-123h-686v-494h627v-127h-627v-493h686v-121h-815z" />
<glyph unicode="F" horiz-adv-x="1001" d="M143 0v1358h787v-123h-658v-494h598v-127h-598v-614h-129z" />
<glyph unicode="G" horiz-adv-x="1333" d="M106 559v240q0 235 166 401q168 168 404 168q154 0 284.5 -77.5t206.5 -209.5l-110 -65q-56 101 -158.5 161t-222.5 60q-182 0 -311 -129q-129 -126 -129 -309v-240q0 -182 129 -311t311 -129q183 0 309 129q129 129 129 311v51h-520v127h651v-178q0 -236 -168 -401 q-166 -166 -401 -166q-238 0 -404 166t-166 401z" />
<glyph unicode="H" horiz-adv-x="1302" d="M143 0v1358h129v-619h754v619h133v-1358h-133v618h-754v-618h-129z" />
<glyph unicode="I" horiz-adv-x="415" d="M143 0v1358h129v-1358h-129z" />
<glyph unicode="J" horiz-adv-x="684" d="M18 -8l27 127q24 -8 68 -8q131 0 223 92q94 91 94 223v932h129v-932q0 -184 -131 -315q-132 -129 -315 -129q-37 0 -95 10z" />
<glyph unicode="K" horiz-adv-x="1077" d="M143 0v1358h129v-744l7 -2l600 746h168l-502 -621l514 -737h-158l-442 635l-187 -234v-401h-129z" />
<glyph unicode="L" horiz-adv-x="901" d="M143 0v1358h129v-1237h594v-121h-723z" />
<glyph unicode="M" horiz-adv-x="1556" d="M100 0l101 1358h100l473 -1008h8l473 1008h103l100 -1358h-129l-76 1038h-16l-422 -917h-72l-426 917h-16l-72 -1038h-129z" />
<glyph unicode="N" horiz-adv-x="1331" d="M143 0v1358h160l750 -1155h6v1155h129v-1358h-135l-772 1159h-9v-1159h-129z" />
<glyph unicode="O" horiz-adv-x="1353" d="M106 559v240q0 235 166 401q168 168 404 168q235 0 403 -168q168 -165 168 -401v-240q0 -236 -168 -401q-166 -166 -403 -166q-235 0 -404 166q-166 166 -166 401zM238 559q0 -181 127 -311q130 -127 311 -127t311 127q129 129 129 311v240q0 183 -129 309 q-129 129 -311 129q-180 0 -309 -129t-129 -309v-240z" />
<glyph unicode="P" horiz-adv-x="1173" d="M143 0v1358h541q154 0 268 -117q115 -118 115 -262v-166q0 -146 -115 -264q-115 -115 -268 -115h-412v-434h-129zM272 555h412q104 0 180 76q78 78 78 180v168q0 94 -80 174q-79 82 -178 82h-412v-680z" />
<glyph unicode="Q" horiz-adv-x="1374" d="M106 559v240q0 235 166 401q168 168 404 168t401 -168q168 -165 168 -401v-240q0 -235 -164 -399l187 -185l-82 -86l-201 193q-137 -90 -309 -90q-235 0 -404 166q-166 166 -166 401zM238 559q0 -181 127 -311q129 -129 311 -129q113 0 215 57l-135 131l84 86l147 -145 q129 129 129 311v240q0 183 -129 309q-129 129 -311 129q-180 0 -309 -129t-129 -309v-240z" />
<glyph unicode="R" horiz-adv-x="1177" d="M143 0v1358h555q143 0 244 -101q100 -100 100 -243v-109q0 -128 -96 -235q-94 -102 -217 -105l-2 -8l315 -557h-149l-315 563h-306v-563h-129zM272 684h422q92 0 156.5 64.5t64.5 156.5v109q0 92 -64.5 156.5t-156.5 64.5h-422v-551z" />
<glyph unicode="S" horiz-adv-x="1069" d="M80 160l94 92q177 -133 383 -133q134 0 211.5 59.5t77.5 153.5q0 165 -258 266q-16 6 -62.5 24t-66.5 26t-63 26t-64.5 30t-56.5 33t-53.5 38t-42.5 42t-35 49q-12 26 -20 56q-8 27 -7 56v7q0 157 121 266q124 109 325 109q256 0 412 -156l-88 -104q-133 133 -314 133 q-154 0 -238.5 -65.5t-84.5 -168.5q0 -128 260 -227q134 -50 217 -86q117 -47 189.5 -132.5t72.5 -197.5q0 -170 -114 -267t-330 -97q-279 0 -465 168z" />
<glyph unicode="T" horiz-adv-x="976" d="M35 1235v123h907v-123h-391v-1235h-127v1235h-389z" />
<glyph unicode="U" horiz-adv-x="1249" d="M133 481v877h129v-877q0 -149 107 -256q106 -106 256 -106t254 104q106 106 106 258v877h129v-877q0 -203 -143 -346t-346 -143q-206 0 -349 143t-143 346z" />
<glyph unicode="V" d="M35 1358h137l397 -1153h9l395 1153h137l-473 -1358h-127z" />
<glyph unicode="W" horiz-adv-x="1499" d="M35 1358h135l254 -1141h8l268 1141h150l217 -1141h10l260 1141h127l-323 -1358h-144l-223 1137h-12l-281 -1137h-125z" />
<glyph unicode="X" horiz-adv-x="1148" d="M35 0l463 705l-422 653h153l338 -531h8l347 531h155l-428 -649l463 -709h-156l-383 588h-8l-377 -588h-153z" />
<glyph unicode="Y" horiz-adv-x="1150" d="M35 1358h153l383 -627h9l385 627h151l-477 -774v-584h-129v584z" />
<glyph unicode="Z" horiz-adv-x="1083" d="M125 0v121l692 1108l-2 6h-690v123h852v-123l-696 -1108l4 -6h692v-121h-852z" />
<glyph unicode="[" horiz-adv-x="509" d="M125 -190v1548h244v-86h-127v-1376h127v-86h-244z" />
<glyph unicode="\" horiz-adv-x="641" d="M35 1358h110l461 -1358h-110z" />
<glyph unicode="]" horiz-adv-x="509" d="M125 -104h127v1376h-127v86h244v-1548h-244v86z" />
<glyph unicode="^" horiz-adv-x="1052" d="M90 530l391 828h90l394 -828h-109l-326 682h-8l-321 -682h-111z" />
<glyph unicode="_" horiz-adv-x="892" d="M0 0h893v-123h-893v123z" />
<glyph unicode="`" horiz-adv-x="356" d="M45 1358h174l133 -211h-104z" />
<glyph unicode="a" horiz-adv-x="1015" d="M106 285q0 152 115.5 237.5t337.5 85.5h211q0 130 -65.5 210.5t-194.5 80.5q-88 0 -164 -27.5t-115 -68.5l-88 80q128 137 365 137q177 0 279 -106t102 -304l2 -610h-2h-2h-2h-2h-2h-2h-2h-3h-2h-2h-2h-2h-2h-2h-2h-4h-2h-2h-4h-2h-4h-2h-2h-4h-5h-2h-4h-2h-4h-4h-2h-4 h-4h-4h-4h-4h-3h-18v137h-10q-108 -147 -307 -147q-149 0 -250 84q-97 88 -97 211zM236 287q0 -81 59.5 -133t177.5 -52q117 0 207 72q90 75 90 188v138h-256q-133 0 -205.5 -57.5t-72.5 -155.5z" />
<glyph unicode="b" horiz-adv-x="1060" d="M143 0v1446h123v-553h6q37 55 119.5 92t159.5 37q160 0 280 -111q123 -111 123 -274v-266q0 -160 -120 -271q-119 -110 -283 -110q-89 0 -167 40.5t-112 98.5h-6v-129h-123zM266 397q0 -131 80 -209.5t205 -78.5q119 0 197 81q81 81 81 207v221q0 118 -81 199 q-82 82 -197 82q-134 0 -208.5 -75.5t-74.5 -205.5z" />
<glyph unicode="c" horiz-adv-x="935" d="M106 356v279q0 182 125 283q124 100 277 100q133 0 232 -68.5t143 -171.5l-121 -47q-33 71 -100.5 118.5t-153.5 47.5q-103 0 -193 -72q-86 -71 -86 -188v-258q0 -104 82 -186q83 -80 197 -80q81 0 151 46.5t103 119.5l121 -50q-43 -105 -147 -171t-228 -66 q-165 0 -283 106q-119 107 -119 258z" />
<glyph unicode="d" horiz-adv-x="1060" d="M106 371v266q0 162 121 274q123 111 283 111q77 0 159 -36.5t119 -92.5h7v553h123v-1446h-123v129h-7q-34 -58 -111.5 -98.5t-166.5 -40.5q-166 0 -285 110t-119 271zM229 397q0 -114 82 -196t199 -82q125 0 204 75t79 203v221q0 130 -74.5 205.5t-208.5 75.5 q-117 0 -199 -82t-82 -199v-221z" />
<glyph unicode="e" horiz-adv-x="1017" d="M104 430v125q0 200 132 332q131 131 325 131q161 0 254 -90q94 -88 94 -201q0 -125 -92 -217t-252 -92h-336q0 -139 88.5 -223t221.5 -84q81 0 153 39.5t111 103.5l110 -72q-140 -192 -374 -192q-196 0 -316 123q-119 125 -119 317zM229 537h334q100 0 156.5 49t56.5 137 q0 75 -58.5 123.5t-156.5 48.5q-135 0 -233 -94q-99 -95 -99 -264z" />
<glyph unicode="f" horiz-adv-x="557" d="M0 899v113h152v125q0 105 69 171t191 66h61v-104h-61q-66 0 -103 -39t-37 -94v-125h201v-113h-201v-899h-120v899h-152z" />
<glyph unicode="g" horiz-adv-x="1060" d="M106 377v258q0 177 121 280q120 105 291 105q84 0 158 -39t112 -98h7v129h123v-977q0 -149 -115 -264q-113 -113 -285 -113q-210 0 -334 139l84 80q27 -30 51 -47q28 -21 81.5 -37t117.5 -16q123 0 199 74t76 188v82h-7q-42 -60 -114 -95.5t-156 -35.5q-170 0 -289 104 q-121 109 -121 283zM229 391q0 -119 82 -201q81 -81 199 -81q134 0 208.5 75.5t74.5 206.5v215q0 142 -77 217.5t-206 75.5q-124 0 -202.5 -78t-78.5 -211v-219z" />
<glyph unicode="h" horiz-adv-x="1081" d="M143 0v1446h123v-559h6q80 135 279 135q157 0 276 -104q121 -103 121 -283v-635h-121v637q0 118 -74 190t-190 72q-133 0 -216 -66t-83 -190v-643h-121z" />
<glyph unicode="i" horiz-adv-x="516" d="M120 1275q0 35 25 60q26 25 61 25t60 -25t25 -60t-25 -61q-25 -25 -60 -25t-61 25q-25 26 -25 61zM139 238v774h123v-783q2 -51 39 -88t100 -37h60v-104h-60q-123 0 -192.5 67t-69.5 171z" />
<glyph unicode="j" horiz-adv-x="450" d="M23 -225h24q65 0 102 40t37 95v1100h121v-1102q0 -103 -69.5 -170.5t-190.5 -67.5h-24v105zM161 1275q0 35 25 60q26 25 61 25t60 -25t25 -60t-25 -61q-25 -25 -60 -25t-61 25q-25 26 -25 61z" />
<glyph unicode="k" horiz-adv-x="962" d="M143 0v1446h121v-938l6 -4l482 508h174l-357 -357l375 -655h-151l-308 565l-4 2l-217 -213v-354h-121z" />
<glyph unicode="l" horiz-adv-x="479" d="M119 238v1208h123v-1206q0 -57 36.5 -96.5t102.5 -39.5h59v-104h-59q-123 0 -192.5 67t-69.5 171z" />
<glyph unicode="m" horiz-adv-x="1554" d="M143 0v1012h121v-115h8q20 51 94 87t154 36q169 0 268 -123h7q41 59 115 91t153 32q160 0 257 -95.5t97 -246.5l2 -678h-123v678q0 99 -66.5 160t-170.5 61q-95 0 -156 -59t-61 -162v-678h-123v678q0 107 -60 164t-167 57q-102 0 -165 -57.5t-63 -163.5v-678h-121z" />
<glyph unicode="n" horiz-adv-x="1073" d="M143 0v1012h123v-125h6q80 135 279 135q157 0 276 -104q121 -103 121 -283v-635h-121v637q0 118 -74 190t-190 72q-133 0 -216 -66t-83 -190v-643h-121z" />
<glyph unicode="o" horiz-adv-x="1032" d="M104 369v252q0 193 125 294q126 105 287 105q180 0 295 -115t115 -284v-254q0 -143 -121 -258t-291 -115q-171 0 -289 112q-121 115 -121 263zM238 358q0 -102 84 -174q86 -71 192 -71q122 0 201 73q80 77 80 170v269q0 118 -80 195t-199 77q-124 0 -201 -80t-77 -192 v-267z" />
<glyph unicode="p" horiz-adv-x="1060" d="M143 -348v1358h123v-129h6q34 57 112 98t167 41q163 0 283 -111t120 -270v-268q0 -164 -123 -275q-120 -108 -280 -108q-76 0 -160 35q-83 38 -119 94h-6v-465h-123zM268 391q0 -131 74.5 -206.5t208.5 -75.5q116 0 197 81t81 201v219q0 118 -81 199q-82 82 -197 82 q-126 0 -204.5 -75t-78.5 -206v-219z" />
<glyph unicode="q" horiz-adv-x="1060" d="M106 371v268q0 160 119 270q120 111 285 111q89 0 166.5 -41t111.5 -98h7v129h123v-1358h-123v465h-7q-36 -56 -120 -94q-84 -35 -158 -35q-160 0 -283 108q-121 112 -121 275zM229 391q0 -119 82 -201q81 -81 199 -81q134 0 208.5 75.5t74.5 206.5v219q0 131 -78.5 206 t-204.5 75q-117 0 -199 -82t-82 -199v-219z" />
<glyph unicode="r" horiz-adv-x="706" d="M143 0v1010h123v-119h6q38 57 109 93t145 36q92 0 179 -37l-46 -115q-73 31 -133 31q-112 0 -187 -72t-75 -192v-635h-121z" />
<glyph unicode="s" horiz-adv-x="919" d="M72 735q0 127 106 205q109 80 266 80q196 0 353 -121l-76 -96q-116 96 -293 96q-96 0 -164.5 -46.5t-68.5 -117.5q0 -122 258 -149q184 -19 289.5 -94.5t105.5 -202.5q0 -112 -100 -205q-101 -94 -285 -94q-205 0 -387 147l80 92q123 -123 295 -123q122 0 198 52t76 131 q0 143 -287 178q-186 21 -276 82t-90 186z" />
<glyph unicode="t" horiz-adv-x="593" d="M45 897v113h143v260h121v-260h201v-113h-201v-657q0 -57 37 -96.5t103 -39.5h61v-104h-61q-121 0 -191 67.5t-70 170.5v659h-143z" />
<glyph unicode="u" horiz-adv-x="1073" d="M125 375v645h121v-647q0 -118 74 -190t190 -72q133 0 216 66.5t83 191.5v651h121v-1020h-123v125h-6q-42 -61 -119 -97t-172 -36q-163 0 -274 102t-111 281z" />
<glyph unicode="v" horiz-adv-x="901" d="M35 1010h131l283 -852h6l288 852h123l-350 -1010h-125z" />
<glyph unicode="w" horiz-adv-x="1337" d="M43 1012h137l185 -862h6l223 862h149l224 -862h6l184 862h137l-243 -1012h-164l-215 809h-8l-213 -809h-164z" />
<glyph unicode="x" horiz-adv-x="872" d="M43 0l322 504l-318 508h141l248 -394h6l252 394h135l-323 -504l317 -508h-143l-246 393h-8l-252 -393h-131z" />
<glyph unicode="y" horiz-adv-x="903" d="M35 1012h143l266 -826h9l278 826h137l-389 -1108q-50 -143 -120.5 -196.5t-198.5 -53.5v113q91 0 132.5 30.5t72.5 120.5l26 82z" />
<glyph unicode="z" horiz-adv-x="913" d="M72 0v119l610 766v6h-588v121h748v-121l-613 -766v-6h613v-119h-770z" />
<glyph unicode="{" horiz-adv-x="604" d="M102 541v86h27q66 0 66 118v476q0 57 39.5 97t95.5 40h108v-86h-63q-26 0 -46 -20t-20 -46v-475q0 -110 -65 -145v-6q27 -12 46 -53.5t19 -90.5v-475q0 -26 20 -45.5t46 -19.5h63v-86h-108q-56 0 -95.5 39t-39.5 96v475q0 48 -16 84.5t-50 36.5h-27z" />
<glyph unicode="|" horiz-adv-x="370" d="M143 -496v1995h101v-1995h-101z" />
<glyph unicode="}" horiz-adv-x="604" d="M143 -104h62q29 0 48 18t19 47v475q0 50 18.5 91t47.5 53v6q-66 31 -66 145v475q0 27 -19 46.5t-48 19.5h-62v86h107q57 0 96 -40t39 -97v-476q0 -118 68 -118h26v-86h-26q-34 0 -51 -36.5t-17 -84.5v-475q0 -57 -39 -96t-96 -39h-107v86z" />
<glyph unicode="~" horiz-adv-x="1187" d="M137 541q119 82 271 82q73 0 198 -43t172 -43q115 0 207 65l66 -92q-125 -84 -273 -84q-63 0 -200 41q-133 43 -197 43q-98 -6 -180 -61z" />
<glyph unicode="&#xa1;" horiz-adv-x="425" d="M135 -344l29 1071h84l28 -1071h-141zM141 862v150h129v-150h-129z" />
<glyph unicode="&#xa2;" horiz-adv-x="917" d="M106 356v279q0 163 99 258q104 99 235 119v143h101v-139q122 -7 209.5 -69.5t126.5 -155.5l-115 -48q-31 66 -99 110t-155 44q-103 0 -193 -72q-86 -71 -86 -188v-258q0 -104 82 -186q83 -80 197 -80q81 0 151 46.5t103 119.5l121 -50q-38 -97 -131.5 -160.5 t-210.5 -74.5v-146h-101v148q-143 21 -237 123q-97 105 -97 237z" />
<glyph unicode="&#xa3;" horiz-adv-x="987" d="M72 588v102h133q-105 188 -105 281q0 169 101 282q103 115 252 115q183 0 286 -115q105 -114 105 -270h-127q0 100 -66 178t-184 78q-110 0 -174 -71t-64 -197q0 -33 29 -109q15 -40 57 -121l29 -51h338v-102h-285q37 -90 37 -168q0 -134 -78 -250l4 -6q35 -3 136 -25 q99 -22 135 -22q97 0 186 71l82 -102q-113 -94 -258 -94q-21 0 -172 22q-158 23 -164 23q-110 0 -199 -57v131q58 35 127 45q78 110 78 270q0 63 -51 162h-188z" />
<glyph unicode="&#xa4;" horiz-adv-x="901" d="M53 823l80 78l133 -131q82 61 189 61q104 0 184 -57l129 127l80 -80l-129 -129q57 -77 57 -182q0 -106 -61 -188l133 -134l-80 -79l-135 135q-83 -56 -178 -56q-101 0 -183 58l-139 -137l-78 79l138 138q-60 88 -60 184t55 178zM219 510q0 -96 68 -164q70 -67 166 -67 t163 67q68 68 68 164t-68 164q-66 69 -163 69t-166 -69q-68 -68 -68 -164z" />
<glyph unicode="&#xa5;" horiz-adv-x="1169" d="M47 1358h152l383 -627h8l385 627h151l-436 -711h293v-123h-334v-145h334v-121h-334v-258h-127v258h-332v121h332v145h-332v123h293z" />
<glyph unicode="&#xa6;" horiz-adv-x="387" d="M141 307h103v-799h-103v799zM141 702v797h103v-797h-103z" />
<glyph unicode="&#xa7;" horiz-adv-x="1079" d="M80 -195l94 93q125 -131 356 -131q160 0 238 75q82 76 82 172q0 83 -85.5 152t-244.5 94q-198 34 -309 122t-111 232q0 95 66 158q-84 96 -84 227q0 150 127 256q126 105 336 105q103 0 205.5 -42.5t167.5 -107.5l-93 -90q-119 113 -295 113q-129 0 -223 -64 q-94 -61 -94 -170q0 -77 49 -141q32 -40 104 -70t175 -43q199 -28 297 -116.5t98 -208.5q0 -102 -68 -176q113 -101 113 -230q0 -170 -120 -273t-331 -103q-283 0 -450 167zM229 614q0 -39 8.5 -64t36.5 -56q62 -68 267 -105q137 -27 225 -76q39 45 39 107q0 70 -73 120.5 t-212 73.5q-152 23 -256 80q-35 -35 -35 -80z" />
<glyph unicode="&#xa8;" horiz-adv-x="448" d="M-38.5 1232q-4.5 24 0 47.5t24.5 40t49 15.5q50 2 70.5 -38.5t0 -81.5t-70.5 -39q-29 -1 -49 15.5t-24.5 40.5zM256 1255.5q0 34.5 23 57.5q25 23 57 23t55 -23q25 -23 25 -57.5t-25 -57.5q-23 -23 -55 -23t-57 23q-23 23 -23 57.5z" />
<glyph unicode="&#xa9;" horiz-adv-x="1556" d="M106 678q0 284 201 485q203 203 490 203q285 0 485 -203q203 -200 203 -485t-203 -488q-200 -200 -485 -200t-488 200q-203 203 -203 488zM217 678q0 -244 168 -412t412 -168q239 0 407 168q170 170 170 412q0 239 -170 409q-170 173 -407 173q-240 0 -410 -173 q-170 -170 -170 -409zM469 623v100q0 144 100 244t248 100q91 0 170.5 -45t124.5 -121l-96 -57q-66 112 -199 112q-99 0 -168 -69q-67 -67 -67 -164v-100q0 -96 67 -166q71 -68 168 -68q61 0 114.5 30.5t84.5 82.5l94 -58q-43 -78 -121.5 -123t-171.5 -45q-145 0 -246 101 q-102 102 -102 246z" />
<glyph unicode="&#xaa;" horiz-adv-x="657" d="M104 715q0 127 106 184t327 62q0 159 -166 159q-87 0 -154 -61q-1 0 -4.5 3t-12.5 11.5t-18 16.5q-30 30 -30 32q95 92 219 92q110 0 187 -62.5t77 -168.5v-432h-98v90h-5q-67 -98 -219 -98q-88 0 -148.5 48t-60.5 124zM213 725q0 -86 117 -86q82 0 145.5 54.5 t63.5 133.5v45q-167 0 -246.5 -32.5t-79.5 -114.5z" />
<glyph unicode="&#xab;" horiz-adv-x="931" d="M47 506l449 391v-133l-297 -258l297 -260v-131zM387 506l449 391v-133l-297 -258l297 -260v-131z" />
<glyph unicode="&#xac;" horiz-adv-x="942" d="M106 510v135h766v-319h-131v184h-635z" />
<glyph unicode="&#xad;" horiz-adv-x="761" d="M160 510v135h442v-135h-442z" />
<glyph unicode="&#xae;" horiz-adv-x="1556" d="M106 678q0 284 201 485q200 203 488 203q287 0 487 -203q203 -200 203 -485t-203 -488q-203 -200 -487 -200q-285 0 -488 200q-201 204 -201 488zM217 678q0 -244 168 -412t410 -168q241 0 409 168q170 170 170 412q0 239 -170 409q-170 173 -409 173q-240 0 -410 -173 q-168 -168 -168 -409zM537 299v782h374q82 0 140.5 -57.5t58.5 -138.5v-82q0 -73 -53 -135t-121 -62l172 -307h-127l-174 307h-158v-307h-112zM649 711h242q44 0 75 31.5t31 74.5v53q0 43 -31 75t-75 32h-242v-266z" />
<glyph unicode="&#xaf;" horiz-adv-x="763" d="M164 1206v101h426v-101h-426z" />
<glyph unicode="&#xb0;" horiz-adv-x="776" d="M106 1008q0 110 78 188q80 80 191 80t188 -80q80 -77 80 -188q0 -114 -80 -191q-78 -78 -188 -78t-191 78q-78 78 -78 191zM223 1007q0 -64 43 -108q44 -43 108 -43t107 43q44 44 44 108t-44 107q-43 44 -107 44t-108 -44q-43 -43 -43 -107z" />
<glyph unicode="&#xb1;" horiz-adv-x="950" d="M106 166v113h754v-113h-754zM106 725v119h322v317h133v-317h318v-119h-318v-315h-133v315h-322z" />
<glyph unicode="&#xb2;" horiz-adv-x="612" d="M104 547v102q0 173 228 305q145 80 145 158v23q0 54 -39.5 91.5t-93.5 37.5q-52 0 -90.5 -37.5t-38.5 -91.5v-15h-111v15q0 91 70 161q72 72 170 72t168 -70q72 -72 72 -163v-23q0 -65 -41 -118t-140 -120q-75 -48 -94 -63q-37 -28 -65.5 -73t-28.5 -89h369v-102h-480z " />
<glyph unicode="&#xb3;" horiz-adv-x="649" d="M119 774h108q1 -54 43 -90.5t99 -36.5q65 0 101 39.5t36 97.5q0 48 -39 87.5t-88 39.5h-113v93h92q55 0 93 38.5t38 92.5t-38 91.5t-93 37.5q-54 0 -90.5 -36.5t-36.5 -90.5h-106q0 95 68 166q69 69 167 69q100 0 166 -69q70 -70 70 -166q0 -123 -84 -176 q45 -23 72.5 -73.5t27.5 -109.5q0 -98 -67 -168q-68 -71 -180 -71q-108 0 -177 69t-69 166z" />
<glyph unicode="&#xb4;" horiz-adv-x="446" d="M45 1147l131 211h176l-205 -211h-102z" />
<glyph unicode="&#xb6;" horiz-adv-x="1030" d="M104 991q0 365 435 365h391v-1702h-113v1577h-199v-1577h-112v983q-186 0 -294 98t-108 256z" />
<glyph unicode="&#xb7;" horiz-adv-x="509" d="M104 553q0 35 20.5 63t49.5 40.5t63.5 7t59.5 -30.5t30.5 -59.5t-7 -63.5t-40.5 -49.5t-63 -20.5q-44 0 -78.5 34.5t-34.5 78.5z" />
<glyph unicode="&#xb8;" horiz-adv-x="448" d="M84 -295l37 84q69 -29 108 -29q27 0 46.5 15.5t19.5 38.5q0 25 -20 39t-48 14q-43 0 -67 -8l26 69q50 11 103 11q119 0 119 -125q0 -58 -51.5 -105t-127.5 -47q-63 0 -145 43z" />
<glyph unicode="&#xb9;" horiz-adv-x="491" d="M63 1190l166 168h111v-815h-111v680l-100 -101z" />
<glyph unicode="&#xba;" horiz-adv-x="679" d="M106 799v143q0 101 80 184q79 82 195 82q129 0 202.5 -76t73.5 -190v-143q0 -112 -78.5 -187t-197.5 -75q-118 0 -196.5 73.5t-78.5 188.5zM211 803q0 -63 39 -119q41 -59 133 -59q70 0 119 50.5t49 127.5v153q0 72 -48 119t-120 47t-122 -48.5t-50 -117.5v-153z" />
<glyph unicode="&#xbb;" horiz-adv-x="931" d="M104 115v131l297 260l-297 258v133l449 -391zM446 115v131l297 260l-297 258v133l449 -391z" />
<glyph unicode="&#xbc;" horiz-adv-x="1347" d="M57 1190l166 168h111v-815h-111v680l-100 -101zM109 -74l860 1493h102l-862 -1493h-100zM729 166v102l297 545h121l-297 -545h231v281h113v-281h78v-102h-78v-166h-113v166h-352z" />
<glyph unicode="&#xbd;" horiz-adv-x="1357" d="M63 1190l166 168h111v-815h-111v680l-100 -101zM123 -74l860 1493h102l-862 -1493h-100zM782 0v102q0 174 228 306q145 80 145 157v23q0 54 -39.5 91.5t-93.5 37.5q-52 0 -90.5 -37.5t-38.5 -91.5v-15h-111v15q0 92 70 162q71 71 170 71t168 -69q72 -72 72 -164v-23 q0 -65 -40.5 -117.5t-140.5 -119.5q-68 -43 -94 -64q-37 -28 -65.5 -73t-28.5 -89h369v-102h-480z" />
<glyph unicode="&#xbe;" horiz-adv-x="1529" d="M109 774h108q1 -54 42.5 -90.5t98.5 -36.5q65 0 101.5 39.5t36.5 97.5q0 48 -39 87.5t-88 39.5h-113v93h92q55 0 93 38.5t38 92.5t-38 91.5t-93 37.5q-54 0 -90.5 -36.5t-36.5 -90.5h-106q0 96 67 166q69 69 168 69q100 0 166 -69q70 -70 70 -166q0 -123 -84 -176 q45 -23 72.5 -73.5t27.5 -109.5q0 -98 -67 -168q-68 -71 -181 -71q-107 0 -176 69t-69 166zM305 -74l860 1493h103l-862 -1493h-101zM911 166v102l297 545h121l-297 -545h232v281h112v-281h78v-102h-78v-166h-112v166h-353z" />
<glyph unicode="&#xbf;" horiz-adv-x="856" d="M63 0q0 111 66 205l195 274q32 43 32 109v153h127v-153q0 -105 -53 -176l-199 -279q-45 -68 -45 -133q0 -98 68 -166q70 -67 166 -67q97 0 164 67q69 66 69 166v14h123v-14q0 -151 -104 -252q-104 -104 -252 -104t-252 104q-105 102 -105 252zM356 860v150h127v-150h-127 z" />
<glyph unicode="&#xc0;" d="M35 2l475 1358h129l471 -1358h-135l-131 375h-541l-129 -375h-139zM346 498h455l-223 645h-9zM442 1692h174l134 -211h-105z" />
<glyph unicode="&#xc1;" d="M35 2l475 1358h129l471 -1358h-135l-131 375h-541l-129 -375h-139zM346 498h455l-223 645h-9zM401 1479l131 211h177l-205 -211h-103z" />
<glyph unicode="&#xc2;" d="M35 2l475 1358h129l471 -1358h-135l-131 375h-541l-129 -375h-139zM346 498h455l-223 645h-9zM356 1487l144 211h153l142 -211h-119l-98 145h-5l-100 -145h-117z" />
<glyph unicode="&#xc3;" d="M35 2l475 1358h129l471 -1358h-135l-131 375h-541l-129 -375h-139zM250 1516q7 78 60.5 125t133.5 47q50 0 134 -37t127 -37q62 0 77 65h105q-5 -70 -59.5 -122t-127.5 -52q-56 0 -149 35q-87 37 -125 37q-54 0 -72 -61h-104zM346 498h455l-223 645h-9z" />
<glyph unicode="&#xc4;" d="M35 2l475 1358h129l471 -1358h-135l-131 375h-541l-129 -375h-139zM346 498h455l-223 645h-9zM346.5 1588q-4.5 24 0 48t24.5 40.5t49 15.5q50 2 70.5 -39t0 -82t-70.5 -39q-29 -1 -49 15.5t-24.5 40.5zM641 1611.5q0 34.5 23 57.5q25 23 57 23t55 -23q25 -23 25 -57.5 t-25 -57.5q-23 -23 -55 -23t-57 23q-23 23 -23 57.5z" />
<glyph unicode="&#xc5;" d="M35 2l475 1358h129l471 -1358h-135l-131 375h-541l-129 -375h-139zM346 498h455l-223 645h-9zM434 1618.5q0 57.5 41 95.5q41 41 98.5 41t98.5 -41q41 -38 41 -95.5t-41 -98.5t-98.5 -41t-98.5 41t-41 98.5zM522.5 1588.5q14.5 -29.5 50.5 -29.5q35 -2 49.5 28.5t0 61 t-49.5 28.5q-36 0 -50.5 -29.5t0 -59z" />
<glyph unicode="&#xc7;" horiz-adv-x="1249" d="M106 559v240q0 235 166 401q168 168 404 168q154 0 285.5 -77.5t207.5 -209.5l-110 -65q-58 101 -160.5 161t-222.5 60q-180 0 -309 -129t-129 -309v-240q0 -181 127 -311q129 -129 311 -129q121 0 223.5 60t159.5 163l110 -68q-76 -130 -207.5 -206t-285.5 -76 q-235 0 -404 166q-166 166 -166 401zM514 -295l37 84q69 -29 108 -29q27 0 46.5 15.5t19.5 38.5q0 25 -20 39t-48 14q-43 0 -67 -8l26 69q50 11 103 11q119 0 119 -125q0 -58 -51.5 -105t-127.5 -47q-63 0 -145 43z" />
<glyph unicode="&#xc8;" horiz-adv-x="1048" d="M143 0v1358h815v-123h-686v-494h627v-127h-627v-493h686v-121h-815zM373 1665h174l133 -211h-105z" />
<glyph unicode="&#xc9;" horiz-adv-x="1048" d="M143 0v1358h815v-123h-686v-494h627v-127h-627v-493h686v-121h-815zM408 1481l131 211h176l-205 -211h-102z" />
<glyph unicode="&#xca;" horiz-adv-x="1048" d="M143 0v1358h815v-123h-686v-494h627v-127h-627v-493h686v-121h-815zM344 1487l143 211h154l141 -211h-118l-99 145h-4l-100 -145h-117z" />
<glyph unicode="&#xcb;" horiz-adv-x="1048" d="M143 0v1358h815v-123h-686v-494h627v-127h-627v-493h686v-121h-815zM340.5 1588q-4.5 24 0 48t24.5 40.5t49 15.5q50 2 70.5 -39t0 -82t-70.5 -39q-29 -1 -49 15.5t-24.5 40.5zM634 1611.5q0 34.5 23 57.5t57.5 23t57.5 -23t23 -57.5t-23 -57.5t-57.5 -23t-57.5 23 t-23 57.5z" />
<glyph unicode="&#xcc;" horiz-adv-x="415" d="M74 1694h174l133 -211h-105zM143 0v1358h129v-1358h-129z" />
<glyph unicode="&#xcd;" horiz-adv-x="415" d="M49 1481l131 211h176l-204 -211h-103zM143 0v1358h129v-1358h-129z" />
<glyph unicode="&#xce;" horiz-adv-x="415" d="M-12 1487l143 211h154l141 -211h-119l-98 145h-4l-101 -145h-116zM143 0v1358h129v-1358h-129z" />
<glyph unicode="&#xcf;" horiz-adv-x="415" d="M-18.5 1588q-4.5 24 0 48t24.5 40.5t49 15.5q50 2 70.5 -39t0 -82t-70.5 -39q-29 -1 -49 15.5t-24.5 40.5zM143 0v1358h129v-1358h-129zM276 1611.5q0 34.5 23 57.5q25 23 57.5 23t55.5 -23q25 -23 25 -57.5t-25 -57.5q-23 -23 -55.5 -23t-57.5 23q-23 23 -23 57.5z" />
<glyph unicode="&#xd0;" horiz-adv-x="1372" d="M133 616v113h109v629h463q236 0 401 -168q168 -165 168 -402v-219q0 -235 -168 -403q-166 -166 -401 -166h-463v616h-109zM371 131h334q180 0 309 129t129 309v219q0 183 -129 312t-309 129h-334v-500h112v-113h-112v-485z" />
<glyph unicode="&#xd1;" horiz-adv-x="1245" d="M115 0v1358h159l750 -1155h6v1155h129v-1358h-135l-772 1159h-8v-1159h-129zM317 1518q7 78 61 125t134 47q46 0 133 -37t127 -37q63 0 78 65h104q-5 -70 -59 -122t-127 -52q-57 0 -150 35q-87 37 -124 37q-54 0 -72 -61h-105z" />
<glyph unicode="&#xd2;" horiz-adv-x="1353" d="M125 559v240q0 235 166 401q168 168 403 168q236 0 404 -168q168 -165 168 -401v-240q0 -236 -168 -401q-166 -166 -404 -166q-234 0 -403 166q-166 166 -166 401zM256 559q0 -181 127 -311q130 -127 311 -127q182 0 312 127q129 129 129 311v240q0 183 -129 309 q-129 129 -312 129q-182 0 -311 -129q-127 -130 -127 -309v-240zM481 1694h174l133 -211h-104z" />
<glyph unicode="&#xd3;" horiz-adv-x="1353" d="M125 559v240q0 235 166 401q168 168 403 168q236 0 404 -168q168 -165 168 -401v-240q0 -236 -168 -401q-166 -166 -404 -166q-234 0 -403 166q-166 166 -166 401zM256 559q0 -181 127 -311q130 -127 311 -127q182 0 312 127q129 129 129 311v240q0 183 -129 309 q-129 129 -312 129q-182 0 -311 -129q-127 -130 -127 -309v-240zM530 1481l132 211h176l-205 -211h-103z" />
<glyph unicode="&#xd4;" horiz-adv-x="1353" d="M125 559v240q0 235 166 401q168 168 403 168q236 0 404 -168q168 -165 168 -401v-240q0 -236 -168 -401q-166 -166 -404 -166q-234 0 -403 166q-166 166 -166 401zM256 559q0 -181 127 -311q130 -127 311 -127q182 0 312 127q129 129 129 311v240q0 183 -129 309 q-129 129 -312 129q-182 0 -311 -129q-127 -130 -127 -309v-240zM455 1487l143 211h154l141 -211h-119l-98 145h-4l-101 -145h-116z" />
<glyph unicode="&#xd5;" horiz-adv-x="1318" d="M106 559v240q0 235 166 401q168 168 404 168q235 0 403 -168q168 -165 168 -401v-240q0 -236 -168 -401q-166 -166 -403 -166q-235 0 -404 166q-166 166 -166 401zM238 559q0 -181 127 -311q130 -127 311 -127t311 127q129 129 129 311v240q0 183 -129 309 q-129 129 -311 129q-180 0 -309 -129t-129 -309v-240zM336 1518q7 78 60.5 125t133.5 47q50 0 134 -37t127 -37q62 0 77 65h105q-5 -70 -59.5 -122t-127.5 -52q-56 0 -149 35q-87 37 -125 37q-54 0 -72 -61h-104z" />
<glyph unicode="&#xd6;" horiz-adv-x="1353" d="M125 559v240q0 235 166 401q168 168 403 168q236 0 404 -168q168 -165 168 -401v-240q0 -236 -168 -401q-166 -166 -404 -166q-234 0 -403 166q-166 166 -166 401zM256 559q0 -181 127 -311q130 -127 311 -127q182 0 312 127q129 129 129 311v240q0 183 -129 309 q-129 129 -312 129q-182 0 -311 -129q-127 -130 -127 -309v-240zM467.5 1588q-4.5 24 0 48t24.5 40.5t49 15.5q50 2 70.5 -39t0 -82t-70.5 -39q-29 -1 -49 15.5t-24.5 40.5zM761 1611.5q0 34.5 23 57.5t57.5 23t57.5 -23t23 -57.5t-23 -57.5t-57.5 -23t-57.5 23t-23 57.5z " />
<glyph unicode="&#xd7;" horiz-adv-x="976" d="M82 823l80 78l319 -317l316 317l80 -80l-318 -315l318 -318l-80 -79l-316 317l-319 -317l-78 79l315 318z" />
<glyph unicode="&#xd8;" horiz-adv-x="1351" d="M106 559v240q0 235 166 401q168 168 404 168q169 0 315 -96l88 139l84 -53l-94 -150q176 -167 176 -409v-240q0 -236 -168 -401q-166 -166 -401 -166q-178 0 -318 94l-96 -154l-84 54l105 161q-177 171 -177 412zM236 559q0 -175 112 -293h8l566 897q-115 74 -246 74 q-182 0 -311 -129q-129 -126 -129 -309v-240zM428 195q113 -76 248 -76q183 0 309 129q129 129 129 311v240q0 168 -110 293h-9z" />
<glyph unicode="&#xd9;" horiz-adv-x="1249" d="M133 481v877h129v-877q0 -149 107 -256q106 -106 256 -106t254 104q106 106 106 258v877h129v-877q0 -203 -143 -346t-346 -143q-206 0 -349 143t-143 346zM442 1694h174l134 -211h-105z" />
<glyph unicode="&#xda;" horiz-adv-x="1249" d="M133 481v877h129v-877q0 -149 107 -256q106 -106 256 -106t254 104q106 106 106 258v877h129v-877q0 -203 -143 -346t-346 -143q-206 0 -349 143t-143 346zM485 1481l131 211h177l-205 -211h-103z" />
<glyph unicode="&#xdb;" horiz-adv-x="1249" d="M133 481v877h129v-877q0 -149 107 -256q106 -106 256 -106t254 104q106 106 106 258v877h129v-877q0 -203 -143 -346t-346 -143q-206 0 -349 143t-143 346zM403 1487l144 211h153l142 -211h-119l-98 145h-4l-101 -145h-117z" />
<glyph unicode="&#xdc;" horiz-adv-x="1249" d="M133 481v877h129v-877q0 -149 107 -256q106 -106 256 -106t254 104q106 106 106 258v877h129v-877q0 -203 -143 -346t-346 -143q-206 0 -349 143t-143 346zM420.5 1588q-4.5 24 0 48t24.5 40.5t49 15.5q50 2 70.5 -39t0 -82t-70.5 -39q-29 -1 -49 15.5t-24.5 40.5z M714 1611.5q0 34.5 23 57.5q25 23 57.5 23t55.5 -23q25 -23 25 -57.5t-25 -57.5q-23 -23 -55.5 -23t-57.5 23q-23 23 -23 57.5z" />
<glyph unicode="&#xdd;" horiz-adv-x="1150" d="M27 1358h153l383 -627h8l385 627h152l-477 -774v-584h-129v584zM377 1483l131 211h176l-205 -211h-102z" />
<glyph unicode="&#xde;" horiz-adv-x="1118" d="M133 0v1358h127v-195h416q144 0 244 -100t100 -244v-108q0 -131 -98 -238q-98 -104 -220 -104h-442v-369h-127zM260 489h414q91 0 155 64q66 66 66 156v110q0 90 -66 156q-65 65 -155 65h-414v-551z" />
<glyph unicode="&#xdf;" horiz-adv-x="905" d="M129 0v848q0 244 127 383q126 141 305 141q148 0 233 -80t85 -205q0 -90 -49.5 -172.5t-120.5 -138.5q-170 -128 -170 -211q0 -32 43 -63.5t116 -67.5q66 -29 113 -87t47 -128q0 -99 -71.5 -159t-194.5 -60h-139v121h139q74 0 104.5 25.5t30.5 82.5q0 34 -44 68.5 t-112 64.5q-64 33 -108.5 86.5t-44.5 116.5q0 79 48.5 151t117.5 120q70 48 118 114.5t48 136.5q0 75 -50 122.5t-139 47.5q-128 0 -223 -114q-92 -115 -92 -295v-848h-117z" />
<glyph unicode="&#xe0;" horiz-adv-x="1015" d="M106 285q0 152 115.5 237.5t337.5 85.5h211q0 130 -65.5 210.5t-194.5 80.5q-88 0 -164 -27.5t-115 -68.5l-88 80q128 137 365 137q177 0 279 -106t102 -304l2 -610h-2h-2h-2h-2h-2h-2h-2h-3h-2h-2h-2h-2h-2h-2h-2h-4h-2h-2h-4h-2h-4h-2h-2h-4h-5h-2h-4h-2h-4h-4h-2h-4 h-4h-4h-4h-4h-3h-18v137h-10q-108 -147 -307 -147q-149 0 -250 84q-97 88 -97 211zM236 287q0 -81 59.5 -133t177.5 -52q117 0 207 72q90 75 90 188v138h-256q-133 0 -205.5 -57.5t-72.5 -155.5zM360 1358h175l133 -211h-105z" />
<glyph unicode="&#xe1;" horiz-adv-x="1015" d="M106 285q0 152 115.5 237.5t337.5 85.5h211q0 130 -65.5 210.5t-194.5 80.5q-88 0 -164 -27.5t-115 -68.5l-88 80q128 137 365 137q177 0 279 -106t102 -304l2 -610h-2h-2h-2h-2h-2h-2h-2h-3h-2h-2h-2h-2h-2h-2h-2h-4h-2h-2h-4h-2h-4h-2h-2h-4h-5h-2h-4h-2h-4h-4h-2h-4 h-4h-4h-4h-4h-3h-18v137h-10q-108 -147 -307 -147q-149 0 -250 84q-97 88 -97 211zM236 287q0 -81 59.5 -133t177.5 -52q117 0 207 72q90 75 90 188v138h-256q-133 0 -205.5 -57.5t-72.5 -155.5zM367 1147l131 211h176l-205 -211h-102z" />
<glyph unicode="&#xe2;" horiz-adv-x="1015" d="M106 285q0 152 115.5 237.5t337.5 85.5h211q0 130 -65.5 210.5t-194.5 80.5q-88 0 -164 -27.5t-115 -68.5l-88 80q128 137 365 137q177 0 279 -106t102 -304l2 -610h-2h-2h-2h-2h-2h-2h-2h-3h-2h-2h-2h-2h-2h-2h-2h-4h-2h-2h-4h-2h-4h-2h-2h-4h-5h-2h-4h-2h-4h-4h-2h-4 h-4h-4h-4h-4h-3h-18v137h-10q-108 -147 -307 -147q-149 0 -250 84q-97 88 -97 211zM236 287q0 -81 59.5 -133t177.5 -52q117 0 207 72q90 75 90 188v138h-256q-133 0 -205.5 -57.5t-72.5 -155.5zM315 1147l144 211h153l142 -211h-119l-98 145h-5l-100 -145h-117z" />
<glyph unicode="&#xe3;" horiz-adv-x="1015" d="M106 285q0 152 115.5 237.5t337.5 85.5h211q0 130 -65.5 210.5t-194.5 80.5q-88 0 -164 -27.5t-115 -68.5l-88 80q128 137 365 137q177 0 279 -106t102 -304l2 -610h-2h-2h-2h-2h-2h-2h-2h-3h-2h-2h-2h-2h-2h-2h-2h-4h-2h-2h-4h-2h-4h-2h-2h-4h-5h-2h-4h-2h-4h-4h-2h-4 h-4h-4h-4h-4h-3h-18v137h-10q-108 -147 -307 -147q-149 0 -250 84q-97 88 -97 211zM205 1194q7 78 60.5 125t133.5 47q47 0 131 -37q87 -37 129 -37q63 0 78 66h105q-5 -70 -59.5 -122t-127.5 -52q-56 0 -149 35q-85 36 -125 36q-54 0 -72 -61h-104zM236 287 q0 -81 59.5 -133t177.5 -52q117 0 207 72q90 75 90 188v138h-256q-133 0 -205.5 -57.5t-72.5 -155.5z" />
<glyph unicode="&#xe4;" horiz-adv-x="1015" d="M106 285q0 152 115.5 237.5t337.5 85.5h211q0 130 -65.5 210.5t-194.5 80.5q-88 0 -164 -27.5t-115 -68.5l-88 80q128 137 365 137q177 0 279 -106t102 -304l2 -610h-2h-2h-2h-2h-2h-2h-2h-3h-2h-2h-2h-2h-2h-2h-2h-4h-2h-2h-4h-2h-4h-2h-2h-4h-5h-2h-4h-2h-4h-4h-2h-4 h-4h-4h-4h-4h-3h-18v137h-10q-108 -147 -307 -147q-149 0 -250 84q-97 88 -97 211zM236 287q0 -81 59.5 -133t177.5 -52q117 0 207 72q90 75 90 188v138h-256q-133 0 -205.5 -57.5t-72.5 -155.5zM301.5 1232q-4.5 24 0 47.5t24.5 40t49 15.5q50 2 70.5 -38.5t0 -81.5 t-70.5 -39q-29 -1 -49 15.5t-24.5 40.5zM595 1255.5q0 34.5 23 57.5q25 23 57.5 23t55.5 -23q25 -23 25 -57.5t-25 -57.5q-23 -23 -55.5 -23t-57.5 23q-23 23 -23 57.5z" />
<glyph unicode="&#xe5;" horiz-adv-x="1015" d="M106 285q0 152 115.5 237.5t337.5 85.5h211q0 130 -65.5 210.5t-194.5 80.5q-88 0 -164 -27.5t-115 -68.5l-88 80q128 137 365 137q177 0 279 -106t102 -304l2 -610h-2h-2h-2h-2h-2h-2h-2h-3h-2h-2h-2h-2h-2h-2h-2h-4h-2h-2h-4h-2h-4h-2h-2h-4h-5h-2h-4h-2h-4h-4h-2h-4 h-4h-4h-4h-4h-3h-18v137h-10q-108 -147 -307 -147q-149 0 -250 84q-97 88 -97 211zM236 287q0 -81 59.5 -133t177.5 -52q117 0 207 72q90 75 90 188v138h-256q-133 0 -205.5 -57.5t-72.5 -155.5zM389 1272q0 57 41 97t98 40t98.5 -40t41.5 -97t-41.5 -98t-98.5 -41 q-58 0 -98.5 40t-40.5 99zM477.5 1241.5q14.5 -29.5 50.5 -29.5q35 -2 49.5 29t0 61.5t-49.5 28.5q-36 0 -50.5 -30t0 -59.5z" />
<glyph unicode="&#xe7;" horiz-adv-x="935" d="M106 356v279q0 182 125 283q124 100 277 100q133 0 232 -68.5t143 -171.5l-121 -47q-33 71 -100.5 118.5t-153.5 47.5q-103 0 -193 -72q-86 -71 -86 -188v-258q0 -104 82 -186q83 -80 197 -80q81 0 151 46.5t103 119.5l121 -50q-43 -105 -147 -171t-228 -66 q-165 0 -283 106q-119 107 -119 258zM340 -295l37 84q69 -29 108 -29q27 0 46.5 15.5t19.5 38.5q0 25 -20 39t-48 14q-43 0 -67 -8l26 69q50 11 103 11q119 0 119 -125q0 -58 -51.5 -105t-127.5 -47q-63 0 -145 43z" />
<glyph unicode="&#xe8;" horiz-adv-x="1017" d="M104 430v125q0 200 132 332q131 131 325 131q161 0 254 -90q94 -88 94 -201q0 -125 -92 -217t-252 -92h-336q0 -139 88.5 -223t221.5 -84q81 0 153 39.5t111 103.5l110 -72q-140 -192 -374 -192q-196 0 -316 123q-119 125 -119 317zM229 537h334q100 0 156.5 49t56.5 137 q0 75 -58.5 123.5t-156.5 48.5q-135 0 -233 -94q-99 -95 -99 -264zM401 1358h174l134 -211h-105z" />
<glyph unicode="&#xe9;" horiz-adv-x="1017" d="M104 430v125q0 200 132 332q131 131 325 131q161 0 254 -90q94 -88 94 -201q0 -125 -92 -217t-252 -92h-336q0 -139 88.5 -223t221.5 -84q81 0 153 39.5t111 103.5l110 -72q-140 -192 -374 -192q-196 0 -316 123q-119 125 -119 317zM229 537h334q100 0 156.5 49t56.5 137 q0 75 -58.5 123.5t-156.5 48.5q-135 0 -233 -94q-99 -95 -99 -264zM385 1147l131 211h176l-205 -211h-102z" />
<glyph unicode="&#xea;" horiz-adv-x="1017" d="M104 430v125q0 200 132 332q131 131 325 131q161 0 254 -90q94 -88 94 -201q0 -125 -92 -217t-252 -92h-336q0 -139 88.5 -223t221.5 -84q81 0 153 39.5t111 103.5l110 -72q-140 -192 -374 -192q-196 0 -316 123q-119 125 -119 317zM229 537h334q100 0 156.5 49t56.5 137 q0 75 -58.5 123.5t-156.5 48.5q-135 0 -233 -94q-99 -95 -99 -264zM340 1147l143 211h154l141 -211h-119l-98 145h-4l-100 -145h-117z" />
<glyph unicode="&#xeb;" horiz-adv-x="1017" d="M104 430v125q0 200 132 332q131 131 325 131q161 0 254 -90q94 -88 94 -201q0 -125 -92 -217t-252 -92h-336q0 -139 88.5 -223t221.5 -84q81 0 153 39.5t111 103.5l110 -72q-140 -192 -374 -192q-196 0 -316 123q-119 125 -119 317zM229 537h334q100 0 156.5 49t56.5 137 q0 75 -58.5 123.5t-156.5 48.5q-135 0 -233 -94q-99 -95 -99 -264zM325.5 1232q-4.5 24 0 47.5t24.5 40t49 15.5q50 2 70.5 -38.5t0 -81.5t-70.5 -39q-29 -1 -49 15.5t-24.5 40.5zM620 1255.5q0 34.5 23 57.5q25 23 57.5 23t55.5 -23q25 -23 25 -57.5t-25 -57.5 q-23 -23 -55.5 -23t-57.5 23q-23 23 -23 57.5z" />
<glyph unicode="&#xec;" horiz-adv-x="479" d="M47 1358h174l133 -211h-104zM119 238v774h123v-783q2 -51 39 -88t100 -37h59v-104h-59q-123 0 -192.5 67t-69.5 171z" />
<glyph unicode="&#xed;" horiz-adv-x="479" d="M66 1147l131 211h176l-205 -211h-102zM119 238v774h123v-783q2 -51 39 -88t100 -37h59v-104h-59q-123 0 -192.5 67t-69.5 171z" />
<glyph unicode="&#xee;" horiz-adv-x="479" d="M-39 1147l143 211h154l141 -211h-118l-99 145h-4l-100 -145h-117zM119 238v774h123v-783q2 -51 39 -88t100 -37h59v-104h-59q-123 0 -192.5 67t-69.5 171z" />
<glyph unicode="&#xef;" horiz-adv-x="479" d="M-38.5 1232q-4.5 24 0 47.5t24.5 40t49 15.5q50 2 70.5 -38.5t0 -81.5t-70.5 -39q-29 -1 -49 15.5t-24.5 40.5zM119 238v774h123v-783q2 -51 39 -88t100 -37h59v-104h-59q-123 0 -192.5 67t-69.5 171zM256 1255.5q0 34.5 23 57.5q25 23 57 23t55 -23q25 -23 25 -57.5 t-25 -57.5q-23 -23 -55 -23t-57 23q-23 23 -23 57.5z" />
<glyph unicode="&#xf0;" horiz-adv-x="962" d="M72 356v277q0 180 116 278q116 101 283 101q144 0 248 -84l4 4q-7 71 -40 149.5t-73 124.5l-86 -59l-65 84l73 51v8q-51 45 -90 76l80 82l111 -92l86 61l59 -88l-69 -51v-6q77 -91 120 -257t43 -366v-293q0 -154 -118 -260t-283 -106q-163 0 -281 106t-118 260zM197 379 q0 -107 82 -189q82 -79 196 -79q111 0 193 82q84 84 84 186v256q0 116 -82 186q-83 74 -195 74q-113 0 -196 -74q-82 -70 -82 -186v-256z" />
<glyph unicode="&#xf1;" horiz-adv-x="1073" d="M143 0v1012h123v-125h6q80 135 279 135q157 0 276 -104q121 -103 121 -283v-635h-121v637q0 118 -74 190t-190 72q-133 0 -216 -66t-83 -190v-643h-121zM217 1194q7 78 61 125t134 47q49 0 133 -37t127 -37q63 0 78 66h104q-5 -70 -59 -122t-127 -52q-57 0 -150 35 q-85 36 -125 36q-53 0 -71 -61h-105z" />
<glyph unicode="&#xf2;" horiz-adv-x="1032" d="M104 369v252q0 193 125 294q126 105 287 105q180 0 295 -115t115 -284v-254q0 -143 -121 -258t-291 -115q-171 0 -289 112q-121 115 -121 263zM238 358q0 -102 84 -174q86 -71 192 -71q122 0 201 73q80 77 80 170v269q0 118 -80 195t-199 77q-124 0 -201 -80t-77 -192 v-267zM387 1360h174l133 -211h-104z" />
<glyph unicode="&#xf3;" horiz-adv-x="1032" d="M104 369v252q0 193 125 294q126 105 287 105q180 0 295 -115t115 -284v-254q0 -143 -121 -258t-291 -115q-171 0 -289 112q-121 115 -121 263zM238 358q0 -102 84 -174q86 -71 192 -71q122 0 201 73q80 77 80 170v269q0 118 -80 195t-199 77q-124 0 -201 -80t-77 -192 v-267zM348 1147l131 211h176l-204 -211h-103z" />
<glyph unicode="&#xf4;" horiz-adv-x="1032" d="M104 369v252q0 193 125 294q126 105 287 105q180 0 295 -115t115 -284v-254q0 -143 -121 -258t-291 -115q-171 0 -289 112q-121 115 -121 263zM238 358q0 -102 84 -174q86 -71 192 -71q122 0 201 73q80 77 80 170v269q0 118 -80 195t-199 77q-124 0 -201 -80t-77 -192 v-267zM299 1147l143 211h154l141 -211h-119l-98 145h-4l-100 -145h-117z" />
<glyph unicode="&#xf5;" horiz-adv-x="1032" d="M104 369v252q0 193 125 294q126 105 287 105q180 0 295 -115t115 -284v-254q0 -143 -121 -258t-291 -115q-171 0 -289 112q-121 115 -121 263zM205 1194q7 78 60.5 125t133.5 47q47 0 131 -37q87 -37 129 -37q63 0 78 66h105q-5 -70 -59.5 -122t-127.5 -52q-56 0 -149 35 q-85 36 -125 36q-54 0 -72 -61h-104zM238 358q0 -102 84 -174q86 -71 192 -71q122 0 201 73q80 77 80 170v269q0 118 -80 195t-199 77q-124 0 -201 -80t-77 -192v-267z" />
<glyph unicode="&#xf6;" horiz-adv-x="1032" d="M104 369v252q0 193 125 294q126 105 287 105q180 0 295 -115t115 -284v-254q0 -143 -121 -258t-291 -115q-171 0 -289 112q-121 115 -121 263zM238 358q0 -102 84 -174q86 -71 192 -71q122 0 201 73q80 77 80 170v269q0 118 -80 195t-199 77q-124 0 -201 -80t-77 -192 v-267zM293.5 1232q-4.5 24 0 47.5t24.5 40t49 15.5q50 2 70.5 -38.5t0 -81.5t-70.5 -39q-29 -1 -49 15.5t-24.5 40.5zM587 1255.5q0 34.5 23 57.5q25 23 57.5 23t55.5 -23q25 -23 25 -57.5t-25 -57.5q-23 -23 -55.5 -23t-57.5 23q-23 23 -23 57.5z" />
<glyph unicode="&#xf7;" horiz-adv-x="897" d="M76 451v112h745v-112h-745zM371 168v160h153v-160h-153zM371 694v162h153v-162h-153z" />
<glyph unicode="&#xf8;" horiz-adv-x="1015" d="M106 356v277q0 178 117 280q118 103 285 103q130 0 227 -60l68 109l84 -53l-74 -119q96 -104 96 -260v-277q0 -149 -121 -258q-118 -106 -280 -106q-122 0 -223 61l-64 -100l-84 53l70 111q-101 104 -101 239zM229 379q0 -77 50 -148l389 617q-71 47 -160 47 q-114 0 -197 -74q-82 -70 -82 -184v-258zM352 160q74 -47 156 -47q111 0 194 80q84 84 84 186v258q0 81 -45 141z" />
<glyph unicode="&#xf9;" horiz-adv-x="1073" d="M125 375v645h121v-647q0 -118 74 -190t190 -72q133 0 216 66.5t83 191.5v651h121v-1020h-123v125h-6q-42 -61 -119 -97t-172 -36q-163 0 -274 102t-111 281zM362 1358h175l133 -211h-105z" />
<glyph unicode="&#xfa;" horiz-adv-x="1073" d="M125 375v645h121v-647q0 -118 74 -190t190 -72q133 0 216 66.5t83 191.5v651h121v-1020h-123v125h-6q-42 -61 -119 -97t-172 -36q-163 0 -274 102t-111 281zM367 1147l131 211h176l-205 -211h-102z" />
<glyph unicode="&#xfb;" horiz-adv-x="1073" d="M125 375v645h121v-647q0 -118 74 -190t190 -72q133 0 216 66.5t83 191.5v651h121v-1020h-123v125h-6q-42 -61 -119 -97t-172 -36q-163 0 -274 102t-111 281zM313 1147l144 211h153l142 -211h-119l-98 145h-5l-100 -145h-117z" />
<glyph unicode="&#xfc;" horiz-adv-x="1073" d="M125 375v645h121v-647q0 -118 74 -190t190 -72q133 0 216 66.5t83 191.5v651h121v-1020h-123v125h-6q-42 -61 -119 -97t-172 -36q-163 0 -274 102t-111 281zM305.5 1232q-4.5 24 0 47.5t24.5 40t49 15.5q50 2 70.5 -38.5t0 -81.5t-70.5 -39q-29 -1 -49 15.5t-24.5 40.5z M600 1255.5q0 34.5 23 57.5q25 23 57 23t55 -23q25 -23 25 -57.5t-25 -57.5q-23 -23 -55 -23t-57 23q-23 23 -23 57.5z" />
<glyph unicode="&#xfd;" horiz-adv-x="903" d="M37 1012h143l266 -826h9l278 826h137l-389 -1108q-50 -143 -120.5 -196.5t-198.5 -53.5v113q91 0 132.5 30.5t72.5 120.5l26 82zM283 1147l131 211h176l-205 -211h-102z" />
<glyph unicode="&#xfe;" horiz-adv-x="1024" d="M133 -348v1702h125v-467h6q32 56 106.5 94.5t164.5 38.5q160 0 280 -111q119 -110 119 -270v-268q0 -164 -121 -273q-118 -106 -278 -106q-78 0 -156.5 35t-114.5 90h-6v-465h-125zM256 371q0 -112 82 -185t197 -73q112 0 194 73t82 185v268q0 106 -82 182 q-84 78 -194 78q-107 0 -193 -74q-86 -71 -86 -186v-268z" />
<glyph unicode="&#xff;" horiz-adv-x="903" d="M35 1012h143l266 -826h9l278 826h137l-389 -1108q-50 -143 -120.5 -196.5t-198.5 -53.5v113q91 0 132.5 30.5t72.5 120.5l26 82zM225.5 1232q-4.5 24 0 47.5t24.5 40t49 15.5q50 2 70.5 -38.5t0 -81.5t-70.5 -39q-29 -1 -49 15.5t-24.5 40.5zM520 1255.5q0 34.5 23 57.5 t57 23t57 -23t23 -57.5t-23 -57.5t-57 -23t-57 23t-23 57.5z" />
<glyph unicode="&#x178;" horiz-adv-x="1134" d="M16 1358h154l383 -627h8l385 627h152l-477 -774v-584h-129v584zM334.5 1588q-4.5 24 0 48t24.5 40.5t49 15.5q50 2 70.5 -39t0 -82t-70.5 -39q-29 -1 -49 15.5t-24.5 40.5zM628 1611.5q0 34.5 23 57.5q25 23 57.5 23t55.5 -23q25 -23 25 -57.5t-25 -57.5 q-23 -23 -55.5 -23t-57.5 23q-23 23 -23 57.5z" />
<glyph unicode="&#x2c6;" horiz-adv-x="540" d="M43 1147l143 211h154l141 -211h-119l-98 145h-4l-100 -145h-117z" />
<glyph unicode="&#x2dc;" horiz-adv-x="745" d="M45 1194q7 78 61 125t134 47q49 0 133 -37t127 -37q63 0 78 66h104q-5 -70 -59 -122t-127 -52q-57 0 -150 35q-85 36 -125 36q-53 0 -71 -61h-105z" />
<glyph unicode="&#x2000;" horiz-adv-x="877" />
<glyph unicode="&#x2001;" horiz-adv-x="1755" />
<glyph unicode="&#x2002;" horiz-adv-x="877" />
<glyph unicode="&#x2003;" horiz-adv-x="1755" />
<glyph unicode="&#x2004;" horiz-adv-x="585" />
<glyph unicode="&#x2005;" horiz-adv-x="438" />
<glyph unicode="&#x2006;" horiz-adv-x="292" />
<glyph unicode="&#x2007;" horiz-adv-x="292" />
<glyph unicode="&#x2008;" horiz-adv-x="219" />
<glyph unicode="&#x2009;" horiz-adv-x="351" />
<glyph unicode="&#x200a;" horiz-adv-x="97" />
<glyph unicode="&#x2010;" horiz-adv-x="761" d="M160 510v135h442v-135h-442z" />
<glyph unicode="&#x2011;" horiz-adv-x="761" d="M160 510v135h442v-135h-442z" />
<glyph unicode="&#x2012;" horiz-adv-x="761" d="M160 510v135h442v-135h-442z" />
<glyph unicode="&#x2013;" horiz-adv-x="966" d="M90 510v135h787v-135h-787z" />
<glyph unicode="&#x2014;" horiz-adv-x="1857" d="M90 510v135h1677v-135h-1677z" />
<glyph unicode="&#x2018;" horiz-adv-x="397" d="M125 1038l20 252l127 66l-18 -318h-129z" />
<glyph unicode="&#x2019;" horiz-adv-x="380" d="M119 1038l20 318h117l-23 -254z" />
<glyph unicode="&#x201a;" horiz-adv-x="380" d="M100 -227l29 377h127l-25 -312z" />
<glyph unicode="&#x201c;" horiz-adv-x="653" d="M125 1038l20 252l127 66l-18 -318h-129zM381 1038l20 252l127 66l-18 -318h-129z" />
<glyph unicode="&#x201d;" horiz-adv-x="632" d="M119 1038l20 318h117l-23 -254zM377 1038l20 318h117l-22 -254z" />
<glyph unicode="&#x201e;" horiz-adv-x="665" d="M100 -227l29 377h127l-25 -312zM387 -227l29 377h127l-25 -312z" />
<glyph unicode="&#x2022;" horiz-adv-x="813" d="M143 678q0 110 76 186q78 78 187 78q108 0 186 -78t78 -186t-78 -186t-186 -78q-112 0 -187 75q-76 76 -76 189z" />
<glyph unicode="&#x2026;" horiz-adv-x="1138" d="M82 0v188h166v-188h-166zM481 0v188h166v-188h-166zM893 0v188h166v-188h-166z" />
<glyph unicode="&#x202f;" horiz-adv-x="351" />
<glyph unicode="&#x2039;" horiz-adv-x="716" d="M125 506l448 391v-133l-297 -258l297 -260v-131z" />
<glyph unicode="&#x203a;" horiz-adv-x="716" d="M125 115v131l297 260l-297 258v133l448 -391z" />
<glyph unicode="&#x205f;" horiz-adv-x="438" />
<glyph unicode="&#x20ac;" horiz-adv-x="1327" d="M90 467l35 121h131v172h-166l37 123h131q12 203 162 344t356 141q153 0 281 -82t190 -217l-110 -68q-45 107 -142.5 171.5t-218.5 64.5q-150 0 -264 -102q-112 -100 -127 -252h619l-35 -123h-586v-172h532l-34 -121h-494q15 -145 127 -248q112 -100 262 -100 q120 0 218 65t143 172l110 -67q-62 -134 -190 -215.5t-281 -81.5q-203 0 -352 137q-151 139 -166 338h-168z" />
<glyph unicode="&#x2122;" horiz-adv-x="1626" d="M80 1255v103h545v-103h-217v-712h-109v712h-219zM682 543l61 815h91l264 -570h6l264 570h90l60 -815h-103l-43 579h-6l-236 -504h-59l-240 504h-2l-43 -579h-104z" />
<glyph unicode="&#x25fc;" horiz-adv-x="1013" d="M0 0v1014h1014v-1014h-1014z" />
<glyph unicode="&#xfb03;" horiz-adv-x="1380" d="M0 899v113h152v125q0 105 69 171t191 66h61v-104h-61q-66 0 -103 -39t-37 -94v-125h201v-113h-201v-899h-120v899h-152zM0 899v113h152v125q0 105 69 171t191 66h61v-104h-61q-66 0 -103 -39t-37 -94v-125h201v-113h-201v-899h-120v899h-152zM465 899v113h151v125 q0 105 69.5 171t191.5 66h61v-104h-61q-66 0 -103 -39t-37 -94v-125h201v-113h-201v-899h-121v899h-151zM1030 1275q0 35 25 60q26 25 61 25t60 -25t25 -60t-25 -61q-25 -25 -60 -25t-61 25q-25 26 -25 61zM1059 238v774h123v-783q2 -51 39 -88t100 -37h59v-104h-59 q-123 0 -192.5 67t-69.5 171z" />
<glyph unicode="&#xfb04;" horiz-adv-x="1411" d="M0 899v113h152v125q0 105 69 171t191 66h61v-104h-61q-66 0 -103 -39t-37 -94v-125h201v-113h-201v-899h-120v899h-152zM465 899v113h151v125q0 105 69.5 171t191.5 66h61v-104h-61q-66 0 -103 -39t-37 -94v-125h201v-113h-201v-899h-121v899h-151zM1051 238v1208h123 v-1206q0 -57 36.5 -96.5t102.5 -39.5h59v-104h-59q-123 0 -192.5 67t-69.5 171z" />
</font>
</defs>
</svg>
